<?xml version="1.0" encoding="utf-8"?>
<?xml-stylesheet type="text/xsl" href="rss1.xsl"?>
<rss version="2.0" xmlns:atom="http://www.w3.org/2005/Atom" xmlns:content="http://purl.org/rss/1.0/modules/content/" xmlns:dc="http://purl.org/dc/elements/1.1/" xmlns:media="http://search.yahoo.com/mrss/">
<channel>
 <title>Getty</title>
 <link>http://www.gettyimg.com/</link>
 <atom:link href="http://www.gettyimg.com/" rel="self" type="application/rss+xml" />

 
                <item>
                <title><![CDATA[【HD Live Performances】WEB-DL - Troye Sivan - Radio 1s Live Lounge BBC WEB-RIP.1080p-fstambuk]]></title>
                <link><![CDATA[https://sharemania.us/threads/troye-sivan-radio-1s-live-lounge-bbc-web-rip-1080p-fstambuk.229714/]]></link>
                <description><![CDATA[<article>
<blockquote class="messageText SelectQuoteContainer ugc baseHtml">
<div style="text-align: center"><img src="https://i.imgur.com/QwQb6wo.png" class="bbCodeImage LbImage" alt="[​IMG]" data-url="https://i.imgur.com/QwQb6wo.png" style=""><br>
<img src="https://i.imgur.com/YoI4tJP.gif" class="bbCodeImage LbImage" alt="[​IMG]" data-url="https://i.imgur.com/YoI4tJP.gif" style=""><br>
<i>Troye Sivan performs his single 'Rush' and a beautiful cover of 'What Was I Made For?' by Billie Eilish in the Radio 1 Live Lounge. </i><br>
​</div>
<div class="ToggleTriggerAnchor bbCodeSpoilerContainer">
<button type="button" class="button bbCodeSpoilerButton ToggleTrigger Tooltip JsOnly" data-target="> .SpoilerTarget"><span>Spoiler: <span class="SpoilerTitle">Radio 1s Live Lounge</span></span></button>
<div class="SpoilerTarget bbCodeSpoilerText">
<div class="bbCodeBlock bbCodeCode">
<div class="type">Code:</div>
<pre>Format                                   : MPEG-4
Format profile                           : Base Media
Codec ID                                 : isom (isom/iso2/avc1/mp41)
File size                                : 459 MiB
Duration                                 : 6 min 12 s
Overall bit rate mode                    : Variable
Overall bit rate                         : 10.3 Mb/s
Collection                               : Radio 1's Live Lounge
Album                                    : Radio 1's Live Lounge
Album/Performer                          : BBC TV
Track name                               : Troye Sivan
Grouping                                 : Performances &amp; Events,Music
Performer                                : BBC Radio 1
Composer                                 : BBC iPlayer
Genre                                    : Performances &amp; Events
ContentType                              : TV Show
Description                              : Troye Sivan performs in the Radio 1 Live Lounge.
Recorded date                            : UTC 2023-10-04 12:52:43
Tagged date                              : UTC 2023-10-04 12:52:43
Copyright                                : 2023 British Broadcasting Corporation, all rights reserved
Cover                                    : Yes
Lyrics                                   : Troye Sivan performs his single 'Rush' and a beautiful cover of 'What Was I Made For?' by Billie Eilish in the Radio 1 Live Lounge. /  / PLAY: https://www.bbc.co.uk/iplayer/episode/p0gd8gp7 /  / INFO: https://www.bbc.co.uk/programmes/p0gd8gp7
Comment                                  : Troye Sivan performs in the Radio 1 Live Lounge.
Part_ID                                  : p0gd8gp7
TVNetworkName                            : BBC Radio 1
LongDescription                          : Troye Sivan performs his single 'Rush' and a beautiful cover of 'What Was I Made For?' by Billie Eilish in the Radio 1 Live Lounge. /  / PLAY: https://www.bbc.co.uk/iplayer/episode/p0gd8gp7 /  / INFO: https://www.bbc.co.uk/programmes/p0gd8gp7

Video
ID                                       : 1
Format                                   : AVC
Format/Info                              : Advanced Video Codec
Format profile                           : High@L4.2
Format settings                          : CABAC / 4 Ref Frames
Format settings, CABAC                   : Yes
Format settings, Reference frames        : 4 frames
Codec ID                                 : avc1
Codec ID/Info                            : Advanced Video Coding
Duration                                 : 6 min 12 s
Bit rate mode                            : Variable
Bit rate                                 : 10.2 Mb/s
Maximum bit rate                         : 12.0 Mb/s
Width                                    : 1 920 pixels
Height                                   : 1 080 pixels
Display aspect ratio                     : 16:9
Frame rate mode                          : Constant
Frame rate                               : 50.000 FPS
Color space                              : YUV
Chroma subsampling                       : 4:2:0
Bit depth                                : 8 bits
Scan type                                : Progressive
Bits/(Pixel*Frame)                       : 0.098
Stream size                              : 453 MiB (99%)
Color range                              : Limited
Color primaries                          : BT.709
Transfer characteristics                 : BT.709
Matrix coefficients                      : BT.709
Codec configuration box                  : avcC

Audio
ID                                       : 2
Format                                   : AAC LC
Format/Info                              : Advanced Audio Codec Low Complexity
Codec ID                                 : mp4a-40-2
Duration                                 : 6 min 12 s
Bit rate mode                            : Variable
Bit rate                                 : 128 kb/s
Maximum bit rate                         : 132 kb/s / 132 kb/s
Channel(s)                               : 2 channels
Channel layout                           : L R
Sampling rate                            : 48.0 kHz
Frame rate                               : 46.875 FPS (1024 SPF)
Compression mode                         : Lossy
Stream size                              : 5.68 MiB (1%)
Language                                 : English
Default                                  : Yes
Alternate group                          : 1</pre>
</div><div style="text-align: center">​</div></div>
</div><div style="text-align: center"><br>
<br>
<div class="bbCodeBlock bbCodeVfcHH HiddenContent">
<div class="attribution type">Hidden Content:</div>
<blockquote>You must reply before you can see the hidden data contained here.</blockquote>
</div><img src="https://ichef.bbci.co.uk/images/ic/640x360/p0gj2p7l.jpg" class="bbCodeImage LbImage" alt="[​IMG]" data-url="https://ichef.bbci.co.uk/images/ic/640x360/p0gj2p7l.jpg" style="">​</div>
<div class="messageTextEndMarker">&nbsp;</div>
</blockquote>
</article>]]></description>
                <author><![CDATA[fstambuk]]></author>
                </item>

                
                <item>
                <title><![CDATA[【Albums (lossless)】WAV - Taylor Swift - 1989 (Standard Edition) [WAV - CD 16/44.1]]]></title>
                <link><![CDATA[https://sharemania.us/threads/taylor-swift-1989-standard-edition-wav-cd-16-44-1.229715/]]></link>
                <description><![CDATA[<article>
<blockquote class="messageText SelectQuoteContainer ugc baseHtml">
Thanks
<div class="messageTextEndMarker">&nbsp;</div>
</blockquote>
</article>]]></description>
                <author><![CDATA[huypvz]]></author>
                </item>

                </channel></rss>